<svg width="16" height="13" viewBox="0 0 16 13" fill="none" xmlns="http://www.w3.org/2000/svg">
<path fill-rule="evenodd" clip-rule="evenodd" d="M16 11.999C16 12.438 15.55 12.999 15 12.999H7.995C7.456 12.999 7.001 12.552 7 12H1C0.46 12 0 11.439 0 11C0 8.366 3 7 3 7C3 7 3.229 6.591 3 6C2.159 5.379 1.942 5.41 2 3C2.058 0.581 3.367 0 4.5 0C5.633 0 6.942 0.58 7 3C7.058 5.41 6.841 5.379 6 6C5.771 6.59 6 7 6 7C6 7 7.549 7.711 8.42 9.088C9.196 8.369 10 7.999 10 7.999C10 7.999 10.229 7.59 10 6.999C9.159 6.379 8.942 6.409 9 3.999C9.058 1.58 10.367 0.999 11.5 0.999C12.633 0.999 13.937 1.58 13.995 3.999C14.054 6.409 13.837 6.379 12.995 6.999C12.766 7.589 12.995 7.999 12.995 7.999C12.995 7.999 16 9.365 16 11.999Z" fill="#1B1F23"/>
</svg>
